<?xml version="1.0" encoding="UTF-8" standalone="no"?>
<svg width="37px" height="40px" viewBox="0 0 37 40" version="1.1" xmlns="http://www.w3.org/2000/svg" xmlns:xlink="http://www.w3.org/1999/xlink" xmlns:sketch="http://www.bohemiancoding.com/sketch/ns">
    <!-- Generator: Sketch 3.2.2 (9983) - http://www.bohemiancoding.com/sketch -->
    <title>user</title>
    <desc>Created with Sketch.</desc>
    <defs></defs>
    <g id="Page-1" stroke="none" stroke-width="1" fill="none" fill-rule="evenodd" sketch:type="MSPage">
        <g id="PBX-Android-Messages" sketch:type="MSArtboardGroup" transform="translate(-70.000000, -1437.000000)" fill="#616161">
            <g id="tab-bar" sketch:type="MSLayerGroup" transform="translate(0.000000, 1414.000000)">
                <path d="M100.311086,58.2184615 C99.7798728,61.5123077 95.029214,63 89.2413448,63 C83.5845979,63 78.924716,61.5753846 78.2203544,58.4353846 C72.8460245,57.1030769 70,54.7292308 70,52.0138462 C70,49.1953846 73.0561563,46.8492308 78.8339391,45.62 C81.5774194,47.9123077 85.2236256,49.3230769 89.2396638,49.3230769 C93.1766924,49.3230769 96.7590186,47.9661538 99.4840073,45.7523077 C104.579282,47.0123077 107,49.2907692 107,52.0138462 C107,54.5846154 104.844889,56.8538462 100.311086,58.2184615 L100.311086,58.2184615 Z M78.8473876,33.4661538 C78.8473876,26.3876923 83.2063607,23 89.2178101,23 C95.2309405,23 99.4621536,26.3876923 99.4621536,33.4661538 C99.4621536,40.5446154 95.2309405,46.2830769 89.2178101,46.2830769 C83.2063607,46.2830769 78.8473876,40.5446154 78.8473876,33.4661538 Z M98.2719673,34.6353846 C98.2719673,29.2138462 94.936756,26.62 90.1810541,26.62 C85.4270332,26.62 81.9724671,29.2138462 81.9724671,34.6353846 C81.9724671,40.0553846 85.4270332,44.4492308 90.1810541,44.4492308 C94.936756,44.4492308 98.2719673,40.0553846 98.2719673,34.6353846 L98.2719673,34.6353846 Z" id="user" sketch:type="MSShapeGroup"></path>
            </g>
        </g>
    </g>
</svg>